<?xml version="1.0" encoding="UTF-8" standalone="no"?>
<!-- Generator: Adobe Illustrator 15.1.0, SVG Export Plug-In . SVG Version: 6.00 Build 0)  -->

<svg
   xmlns:dc="http://purl.org/dc/elements/1.1/"
   xmlns:cc="http://creativecommons.org/ns#"
   xmlns:rdf="http://www.w3.org/1999/02/22-rdf-syntax-ns#"
   xmlns:svg="http://www.w3.org/2000/svg"
   xmlns="http://www.w3.org/2000/svg"
   xmlns:sodipodi="http://sodipodi.sourceforge.net/DTD/sodipodi-0.dtd"
   xmlns:inkscape="http://www.inkscape.org/namespaces/inkscape"
   version="1.1"
   id="Layer_1"
   x="0px"
   y="0px"
   width="512px"
   height="512px"
   viewBox="0 0 512 512"
   enable-background="new 0 0 512 512"
   xml:space="preserve"
   inkscape:version="0.48.5 r10040"
   sodipodi:docname="1.svg"><metadata
     id="metadata80"><rdf:RDF><cc:Work
         rdf:about=""><dc:format>image/svg+xml</dc:format><dc:type
           rdf:resource="http://purl.org/dc/dcmitype/StillImage" /></cc:Work></rdf:RDF></metadata><defs
     id="defs78" /><sodipodi:namedview
     pagecolor="#ffffff"
     bordercolor="#666666"
     borderopacity="1"
     objecttolerance="10"
     gridtolerance="10"
     guidetolerance="10"
     inkscape:pageopacity="0"
     inkscape:pageshadow="2"
     inkscape:window-width="640"
     inkscape:window-height="480"
     id="namedview76"
     showgrid="false"
     inkscape:zoom="0.4609375"
     inkscape:cx="256"
     inkscape:cy="285.36735"
     inkscape:window-x="0"
     inkscape:window-y="0"
     inkscape:window-maximized="0"
     inkscape:current-layer="Layer_1" /><g
     id="g70"
     style="fill:#ffffff"><g
       id="g72"
       style="fill:#ffffff"><path
         clip-rule="evenodd"
         d="m 177.615,288 c 7.438,-36.521 39.688,-64 78.396,-64 38.709,0 70.958,27.479 78.376,64 h 32 c -7.834,-54.125 -54.084,-96 -110.376,-96 -56.271,0 -102.541,41.875 -110.375,96 h 31.979 z m 78.396,-128 c 8.833,0 16,-7.167 16,-16 v -32 c 0,-8.833 -7.167,-16 -16,-16 -8.832,0 -16,7.167 -16,16 v 32 c 0,8.833 7.168,16 16,16 z m 147.062,-3.083 c -6.249,-6.25 -16.374,-6.25 -22.625,0 l -22.625,22.625 c -6.249,6.25 -6.249,16.375 0,22.625 6.251,6.25 16.376,6.25 22.625,0 l 22.625,-22.625 c 6.25,-6.25 6.25,-16.375 0,-22.625 z m -248.896,22.625 -22.625,-22.625 c -6.249,-6.25 -16.373,-6.25 -22.625,0 -6.249,6.25 -6.249,16.375 0,22.625 l 22.625,22.625 c 6.252,6.25 16.376,6.25 22.625,0 6.252,-6.25 6.252,-16.375 0,-22.625 z M 352.011,320 h -192 c -8.832,0 -16,7.167 -16,16 0,8.833 7.168,16 16,16 h 192 c 8.833,0 16,-7.167 16,-16 0,-8.833 -7.167,-16 -16,-16 z m -32,64 h -128 c -8.832,0 -16,7.167 -16,16 0,8.833 7.168,16 16,16 h 128 c 8.833,0 16,-7.167 16,-16 0,-8.833 -7.167,-16 -16,-16 z"
         id="path74"
         inkscape:connector-curvature="0"
         style="fill:#ffffff;fill-rule:evenodd" /></g></g></svg>