<?xml version="1.0" encoding="UTF-8" standalone="no"?>
<!-- Generator: Adobe Illustrator 15.1.0, SVG Export Plug-In . SVG Version: 6.00 Build 0)  -->

<svg
   xmlns:dc="http://purl.org/dc/elements/1.1/"
   xmlns:cc="http://creativecommons.org/ns#"
   xmlns:rdf="http://www.w3.org/1999/02/22-rdf-syntax-ns#"
   xmlns:svg="http://www.w3.org/2000/svg"
   xmlns="http://www.w3.org/2000/svg"
   xmlns:sodipodi="http://sodipodi.sourceforge.net/DTD/sodipodi-0.dtd"
   xmlns:inkscape="http://www.inkscape.org/namespaces/inkscape"
   version="1.1"
   id="Layer_1"
   x="0px"
   y="0px"
   width="512px"
   height="512px"
   viewBox="0 0 512 512"
   enable-background="new 0 0 512 512"
   xml:space="preserve"
   inkscape:version="0.48.5 r10040"
   sodipodi:docname="48.svg"><metadata
     id="metadata80"><rdf:RDF><cc:Work
         rdf:about=""><dc:format>image/svg+xml</dc:format><dc:type
           rdf:resource="http://purl.org/dc/dcmitype/StillImage" /><dc:title /></cc:Work></rdf:RDF></metadata><defs
     id="defs78" /><sodipodi:namedview
     pagecolor="#ffffff"
     bordercolor="#666666"
     borderopacity="1"
     objecttolerance="10"
     gridtolerance="10"
     guidetolerance="10"
     inkscape:pageopacity="0"
     inkscape:pageshadow="2"
     inkscape:window-width="751"
     inkscape:window-height="480"
     id="namedview76"
     showgrid="false"
     inkscape:zoom="0.4609375"
     inkscape:cx="384"
     inkscape:cy="256"
     inkscape:window-x="183"
     inkscape:window-y="0"
     inkscape:window-maximized="0"
     inkscape:current-layer="Layer_1" /><g
     id="g70"
     transform="matrix(0.79516679,0,0,0.82790092,121.82295,40.082509)"
     style="fill:#ffffff"><g
       id="g72"
       style="fill:#ffffff"><path
         clip-rule="evenodd"
         d="m 279.86441,104.94916 c -61.75,0 -112,50.25 -112,112 0,61.749 50.25,112 112,112 61.75,0 112,-50.251 112,-112 0,-61.75 -50.25,-112 -112,-112 z m 0,-32.000004 c 8.833,0 16,-7.146 16,-16.000003 v -32 c 0,-8.833 -7.167,-16.0000004 -16,-16.0000004 -8.854,0 -16,7.1670004 -16,16.0000004 v 32 c 0,8.854003 7.146,16.000003 16,16.000003 z m 0,288.000004 c -8.854,0 -16,7.167 -16,16 v 32 c 0,8.854 7.146,16 16,16 8.833,0 16,-7.146 16,-16 v -32 c 0,-8.833 -7.167,-16 -16,-16 z m 124.417,-245.833 22.625,-22.625004 c 6.25,-6.25 6.25,-16.375 0,-22.625 -6.251,-6.250003 -16.375,-6.250003 -22.625,0 l -22.625,22.625 c -6.251,6.25 -6.251,16.375004 0,22.625004 6.25,6.249 16.374,6.249 22.625,0 z m -248.876,203.687 -22.623,22.625 c -6.252,6.25 -6.252,16.376 0,22.625 6.249,6.25 16.373,6.25 22.623,0 l 22.625,-22.625 c 6.251,-6.291 6.251,-16.375 0,-22.625 -6.249,-6.25 -16.374,-6.292 -22.625,0 z m -19.541,-101.854 c 0,-8.833 -7.167,-16 -16,-16 H 87.864407 c -8.854,0 -16,7.167 -16,16 0,8.854 7.146,16 16,16 h 32.000003 c 8.833,0 16,-7.146 16,-16 z m 336,-16 h -32 c -8.854,0 -16,7.167 -16,16 0,8.854 7.146,16 16,16 h 32 c 8.833,0 16,-7.146 16,-16 0,-8.833 -7.167,-16 -16,-16 z m -316.479,-85.833 c 6.249,6.25 16.375,6.25 22.625,0 6.249,-6.25 6.249,-16.375004 0,-22.625004 l -22.625,-22.625 c -6.25,-6.250003 -16.376,-6.250003 -22.625,0 -6.25,6.25 -6.25,16.375 0,22.625 l 22.625,22.625004 z m 248.938,203.645 c -6.293,-6.25 -16.376,-6.25 -22.625,0 -6.25,6.249 -6.293,16.375 0,22.625 l 22.625,22.625 c 6.249,6.249 16.374,6.249 22.625,0 6.249,-6.25 6.249,-16.376 0,-22.625 l -22.625,-22.625 z"
         id="path74"
         inkscape:connector-curvature="0"
         style="fill:#ffffff;fill-rule:evenodd" /></g></g><g
     id="g4449"
     transform="matrix(0.79237288,0,0,0.85451977,-97.535188,128.60136)"
     style="fill:#ffffff"><g
       id="Grid_1_-4"
       style="fill:#ffffff"><g
         id="Layer_1_1_-5"
         style="fill:#ffffff" /></g><path
       id="path4441"
       d="m 525.83051,120.94915 c -5.312,0 -10.562,0.375 -15.792,1.125 -29.874,-40.707997 -77.02,-65.124997 -128.208,-65.124997 -51.188,0 -98.312,24.417 -128.208,65.124997 -5.23,-0.75 -10.48,-1.125 -15.792,-1.125 -61.75,0 -112,50.25 -112,112 0,61.75 50.25,112 112,112 13.688,0 27.084,-2.5 39.709,-7.333 28.957,25.25 65.791,39.333 104.291,39.333 38.542,0 75.333,-14.083 104.291,-39.333 12.625,4.833 26.021,7.333 39.709,7.333 61.75,0 112,-50.25 112,-112 0,-61.75 -50.25,-112 -112,-112 z m 0,192 c -17.125,0 -32.916,-5.5 -45.938,-14.667 -23.478,28.291 -58.438,46.667 -98.062,46.667 -39.625,0 -74.584,-18.376 -98.062,-46.667 -13,9.167 -28.813,14.667 -45.938,14.667 -44.188,0 -80,-35.812 -80,-80 0,-44.188 35.812,-80 80,-80 10.812,0 21.062,2.208 30.438,6.083 21.229,-41.416 63.853,-70.082997 113.562,-70.082997 49.709,0 92.334,28.666997 113.541,70.082997 9.397,-3.875 19.668,-6.083 30.459,-6.083 44.188,0 80,35.812 80,80 0,44.188 -35.812,80 -80,80 z"
       clip-rule="evenodd"
       inkscape:connector-curvature="0"
       style="fill:#ffffff;fill-rule:evenodd" /></g></svg>